<?xml version="1.0" encoding="utf-8"?>
<!-- Generator: Adobe Illustrator 19.0.0, SVG Export Plug-In . SVG Version: 6.00 Build 0)  -->
<svg version="1.1" id="layer" xmlns="http://www.w3.org/2000/svg" xmlns:xlink="http://www.w3.org/1999/xlink" x="0px" y="0px"
	 viewBox="-153 -46 652 652" style="enable-background:new -153 -46 652 652;" xml:space="preserve">
<style type="text/css">
	.st0{fill:#D9272E;}
	.st1{fill:#88898D;}
</style>
<path class="st0" d="M115.6,225.5c-4.4-8.2-7.1-19-7.1-30.7c0-24.8,12.4-45.5,27.5-45.5h95.5c5.1,0,9.3,6.9,9.3,15.3
	c0,8.4-4.2,15.3-9.3,15.3H136c-5.1,0-9,6.9-9,14.9c0,7.9,3.6,15.6,9,15.6h95.5c5.1,0,9.3,6.8,9.3,15.1c0,8.3-4.2,15.1-9.3,15.1H136
	c-5.4,0-9,7.7-9,15.6c0,7.9,3.9,14.8,9,14.8h95.5c5.1,0,9.3,6.9,9.3,15.3c0,8.4-4.2,15.3-9.3,15.3H136c-15.1,0-27.5-20.8-27.5-45.5
	C108.5,244.5,111.2,233.7,115.6,225.5L115.6,225.5z"/>
<path class="st1" d="M-126.9,369.1h32.5c11.7,0,13.6,3.9,13.6,11.5v3.3c0,5.7-3.3,7.3-7.5,7.7v0.1c5.6,1,7,3.9,7,7.6v10.4h-5.2v-8.9
	c0-6.3-3.1-7.1-8.1-7.1h-26.9v16.1h-5.5V369.1z M-95,389.3c6.1,0,8.7-1.6,8.7-5.9v-3.7c0-4.6-2-6-10.1-6h-25.1v15.6H-95z M-44,383.9
	c0-10.3,3.5-15.2,14.5-15.2H-6c11,0,14.5,5,14.5,15.2v11.1c0,10.3-3.5,15.2-14.5,15.2h-23.4c-11,0-14.5-5-14.5-15.2V383.9z M3,381.8
	c0-7.1-4.3-8.7-9.5-8.7h-22.3c-5.3,0-9.5,1.6-9.5,8.7v15.3c0,7.1,4.3,8.7,9.5,8.7h22.3c5.3,0,9.5-1.6,9.5-8.7V381.8z M46.4,369.1
	h34.7c8.4,0,10.8,4.4,10.8,9.1v3.5c0,2.9-1.6,5.9-6.6,6.4v0.2c4.3,0.2,8.1,1.8,8.1,8v4.8c0,5.7-5,8.7-11.8,8.7H46.4V369.1z
	 M86.4,377.9c0-3.7-4.1-4.3-5.8-4.3H51.9v13h28.4c3,0,6.1-1,6.1-5V377.9z M88,397c0-5.1-2.8-5.8-7.8-5.8H51.9v14.2H81
	c5.1,0,7-1.8,7-5.4V397z M130.4,383.9c0-10.3,3.5-15.2,14.5-15.2h23.4c11,0,14.5,5,14.5,15.2v11.1c0,10.3-3.5,15.2-14.5,15.2h-23.4
	c-11,0-14.5-5-14.5-15.2V383.9z M177.3,381.8c0-7.1-4.3-8.7-9.5-8.7h-22.3c-5.3,0-9.6,1.6-9.6,8.7v15.3c0,7.1,4.3,8.7,9.6,8.7h22.3
	c5.3,0,9.5-1.6,9.5-8.7V381.8z M236.8,409.8h5.5v-36.2h20.6v-4.5h-46.6v4.5h20.6V409.8z M297.6,409.8h5.5v-40.7h-5.5V409.8z
	 M341.2,395.1c0,10.3,3.5,15.2,14.5,15.2h20.8c11.4,0,13.8-4,13.8-11.4v-2.8h-5.2v2.5c0,5.5-2.1,7.1-9.5,7.1h-19.3
	c-5.3,0-9.6-1.6-9.6-8.7v-15.3c0-7.1,4.3-8.7,9.6-8.7h19.1c5,0,9.3,0.3,9.3,7.3v1.8h4.8v-3.5c0-5.4-2.8-10.1-12.8-10.1h-21.1
	c-11,0-14.5,5-14.5,15.2V395.1z M426.3,400c0,8.9,7.1,10.3,15.1,10.3h15.3c8.1,0,16.3-0.7,16.3-10.7v-2.7c0-6.9-4.5-10-15.2-10
	h-16.3c-8.6,0-10.1-1.6-10.1-6.5c0-6.7,3.8-7.3,14.4-7.3h5.8c14.4,0,15.1,1.2,15.2,7.6h5.2v-1.4c0-7.3-3.4-10.7-17.1-10.7h-11.8
	c-11.4,0-16.9,2.1-16.9,11.4c0,10.8,5.5,11.8,22.3,11.8H459c6.9,0,8.9,1.3,8.9,6.4c0,5.8-2.4,7.5-10.3,7.5h-17.1c-6.9,0-9-1.9-9-5.9
	V397h-5.2V400z M417.1,225.5c-0.5,0-0.9,0.2-1.3,0.4c0,0-49.8,34.7-52.3,36.3c-2.4-1.7-52.5-36.3-52.5-36.3
	c-0.4-0.3-0.8-0.4-1.3-0.4h-46.1c-1,0-1.8,0.6-2.1,1.6c-0.1,0.2-0.1,0.4-0.1,0.7c0,0.7,0.4,1.4,1,1.8c0,0,69.7,47.2,74.8,50.6
	c-5.1,3.4-81.1,54.3-81.1,54.3c-0.6,0.4-1,1.1-1,1.8c0,0.2,0,0.4,0.1,0.6c0.3,0.9,1.1,1.6,2.1,1.6h47.2c0.5,0,0.9-0.2,1.3-0.4
	c0,0,55.4-38.4,57.9-40c2.4,1.7,57.4,40,57.4,40c0.4,0.3,0.8,0.4,1.3,0.4h46.4c1,0,1.8-0.6,2.1-1.6c0.1-0.2,0.1-0.4,0.1-0.6
	c0-0.7-0.4-1.4-1-1.8c0,0-75.5-50.9-80.6-54.3c5-3.4,75-50.6,75-50.6c0.6-0.4,1-1.1,1-1.8c0-0.2,0-0.4-0.1-0.6
	c-0.3-0.9-1.1-1.6-2.1-1.6H417.1z M54.4,225.5c-0.7,0-1.3,0.3-1.7,0.8c0,0-65.8,80.5-69.1,84.5c-3.2-4.1-67.9-84.5-67.9-84.5
	c-0.4-0.5-1-0.8-1.7-0.8h-38.7c-0.9,0-1.6,0.5-2,1.3c-0.4,0.8-0.2,1.7,0.3,2.3L-37,337.7c0.4,0.5,1,0.8,1.7,0.8H2.4
	c0.6,0,1.3-0.3,1.7-0.8l90.7-108.6c0.6-0.7,0.7-1.6,0.3-2.4c-0.4-0.8-1.1-1.3-2-1.3H54.4z M463.4,307.4c1.3,0,2.5,0.4,3.7,1
	c1.2,0.6,2.1,1.6,2.8,2.8c0.7,1.2,1,2.4,1,3.7c0,1.3-0.3,2.5-1,3.7c-0.7,1.2-1.6,2.1-2.8,2.8c-1.2,0.7-2.4,1-3.7,1
	c-1.3,0-2.5-0.3-3.7-1c-1.2-0.6-2.1-1.5-2.8-2.8c-0.7-1.2-1-2.4-1-3.7c0-1.3,0.3-2.6,1-3.7c0.7-1.2,1.6-2.1,2.8-2.8
	C461,307.7,462.2,307.4,463.4,307.4 M463.4,308.6c-1,0-2.1,0.3-3.1,0.8c-1,0.5-1.8,1.3-2.3,2.3c-0.6,1-0.8,2-0.8,3.1
	c0,1,0.3,2.1,0.8,3.1c0.6,1,1.3,1.7,2.3,2.3c1,0.6,2,0.8,3.1,0.8c1.1,0,2.1-0.2,3.1-0.8c1-0.5,1.8-1.3,2.3-2.3c0.6-1,0.8-2,0.8-3.1
	c0-1.1-0.3-2.1-0.8-3.1c-0.6-1-1.3-1.7-2.3-2.3C465.5,308.9,464.5,308.6,463.4,308.6 M460.2,319v-8h2.8c0.9,0,1.6,0.1,2.1,0.2
	c0.4,0.2,0.8,0.4,1,0.8c0.2,0.4,0.4,0.8,0.4,1.2c0,0.6-0.2,1.1-0.6,1.5c-0.4,0.4-1,0.7-1.7,0.7c0.3,0.1,0.5,0.3,0.7,0.4
	c0.3,0.3,0.7,0.8,1.2,1.6l1,1.6h-1.6l-0.7-1.2c-0.6-1-1-1.6-1.4-1.9c-0.2-0.2-0.6-0.3-1-0.3h-0.8v3.4H460.2z M461.4,314.5h1.6
	c0.7,0,1.3-0.1,1.5-0.3c0.3-0.2,0.4-0.5,0.4-0.9c0-0.2-0.1-0.5-0.2-0.7c-0.1-0.2-0.3-0.3-0.6-0.4c-0.2-0.1-0.7-0.1-1.3-0.1h-1.5
	V314.5z"/>
</svg>
